<?xml version="1.0" ?><svg data-name="Layer 1" id="Layer_1" viewBox="0 0 512 512" xmlns="http://www.w3.org/2000/svg"><path d="M256,152.26a6.68,6.68,0,0,0,6.68-6.69v-76a6.69,6.69,0,1,0-13.37,0v76A6.68,6.68,0,0,0,256,152.26Z"/><path d="M186.5,171a6.69,6.69,0,0,0,5.79-10l-38-65.76a6.68,6.68,0,1,0-11.57,6.69l38,65.76A6.65,6.65,0,0,0,186.5,171Z"/><path d="M366.81,92.74a6.7,6.7,0,0,0-9.13,2.45l-37.36,64.69a6.69,6.69,0,0,0,2.45,9.14,6.7,6.7,0,0,0,9.13-2.45l37.35-64.69A6.68,6.68,0,0,0,366.81,92.74Z"/><path d="M370.57,218.52A6.7,6.7,0,0,0,379.7,221l65.77-38a6.69,6.69,0,0,0-6.69-11.59l-65.76,38A6.69,6.69,0,0,0,370.57,218.52Z"/><path d="M139,209.38l-65.76-38A6.69,6.69,0,0,0,66.53,183l65.77,38a6.7,6.7,0,0,0,9.13-2.45A6.69,6.69,0,0,0,139,209.38Z"/><path d="M471.09,278h-76a6.69,6.69,0,0,0,0,13.38h76a6.69,6.69,0,0,0,0-13.38Z"/><path d="M445.47,386.34l-65.77-38A6.68,6.68,0,1,0,373,360l65.76,38a6.78,6.78,0,0,0,3.35.89,6.69,6.69,0,0,0,3.34-12.48Z"/><path d="M123.6,284.67a6.68,6.68,0,0,0-6.69-6.69h-76a6.69,6.69,0,0,0,0,13.38h76A6.68,6.68,0,0,0,123.6,284.67Z"/><path d="M132.3,348.37l-65.77,38a6.69,6.69,0,0,0,3.34,12.48,6.78,6.78,0,0,0,3.35-.89L139,360a6.68,6.68,0,0,0-6.68-11.58Z"/><path d="M256,185.24a104.14,104.14,0,0,0-62,187.82v34.58a6.68,6.68,0,0,0,6.69,6.68h110.7a6.68,6.68,0,0,0,6.69-6.68V373.06A104.14,104.14,0,0,0,256,185.24Zm51.56,178.89a6.69,6.69,0,0,0-2.89,5.5V401H279.31V327l16.14-16.14a26.09,26.09,0,0,0,7.84,1.32,26.79,26.79,0,1,0-19.45-8.63l-15.95,15.95a6.69,6.69,0,0,0-2,4.73V401H246.07V324.18a6.69,6.69,0,0,0-2-4.73l-16-15.95a26.45,26.45,0,1,0-19.45,8.63,26.09,26.09,0,0,0,7.84-1.32L232.69,327v74H207.34V369.63a6.69,6.69,0,0,0-2.89-5.5,90.8,90.8,0,1,1,103.1,0Zm-17.43-78.55a13.17,13.17,0,1,1,13.17,13.17A13.19,13.19,0,0,1,290.12,285.58Zm-81.41,13.17a13.17,13.17,0,1,1,13.17-13.17A13.19,13.19,0,0,1,208.71,298.75Z"/><path d="M311.35,435.73H200.65a6.69,6.69,0,1,0,0,13.38h110.7a6.69,6.69,0,1,0,0-13.38Z"/></svg>