<?xml version="1.0" ?><svg viewBox="0 0 64 64" xmlns="http://www.w3.org/2000/svg"><g id="Outline"><g data-name="Outline" id="Outline-2"><path d="M32,2A20.47,20.47,0,0,0,18,37.43V56a1,1,0,0,0,.53.88,1,1,0,0,0,1-.05L22,55.2V61a1,1,0,0,0,.53.88,1,1,0,0,0,1-.05L32,56.2l8.45,5.63a1,1,0,0,0,1,.05A1,1,0,0,0,42,61V55.2l2.45,1.63a1,1,0,0,0,1,.05A1,1,0,0,0,46,56V37.43A20.47,20.47,0,0,0,32,2ZM20,54.13v-15a22,22,0,0,0,2,1.29V52.8Zm4-12.76a19.88,19.88,0,0,0,2,.73V57.8l-2,1.33Zm7.45,12.8L28,56.46V42.6a20.2,20.2,0,0,0,8,0V56.46l-3.45-2.29A1,1,0,0,0,31.45,54.17ZM38,57.8V42.1a19.88,19.88,0,0,0,2-.73V59.13Zm6-3.67L42,52.8V40.38a22,22,0,0,0,2-1.29ZM32,41A18.5,18.5,0,1,1,50.5,22.5,18.52,18.52,0,0,1,32,41Z"/><path d="M32,7a15.5,15.5,0,0,0-4.26,30.41,1,1,0,1,0,.55-1.93,13.5,13.5,0,1,1,7.42,0,1,1,0,0,0,.27,2,1.35,1.35,0,0,0,.28,0A15.5,15.5,0,0,0,32,7Z"/><path d="M26.34,30.24a2.59,2.59,0,0,0,2.6.28l2.81-1.27a.62.62,0,0,1,.5,0l2.81,1.27a2.59,2.59,0,0,0,2.6-.28,2.49,2.49,0,0,0,1-2.33l-.36-3a.5.5,0,0,1,.14-.42l2.1-2.23a2.49,2.49,0,0,0,.57-2.49,2.56,2.56,0,0,0-2-1.73l-3-.59a.58.58,0,0,1-.39-.27l-1.51-2.64a2.59,2.59,0,0,0-4.48,0l-1.51,2.64a.58.58,0,0,1-.39.27l-3,.59a2.56,2.56,0,0,0-2,1.73,2.49,2.49,0,0,0,.57,2.49l2.1,2.23a.49.49,0,0,1,.14.41l-.36,3A2.49,2.49,0,0,0,26.34,30.24ZM24.9,20.89a.47.47,0,0,1-.12-.51.54.54,0,0,1,.43-.38l3-.59A2.53,2.53,0,0,0,30,18.17l1.51-2.64a.6.6,0,0,1,1,0L34,18.17a2.53,2.53,0,0,0,1.74,1.24l3,.59a.54.54,0,0,1,.43.38.47.47,0,0,1-.12.51L37,23.11a2.55,2.55,0,0,0-.68,2l.37,3a.52.52,0,0,1-.22.48.57.57,0,0,1-.6.06l-2.81-1.26a2.62,2.62,0,0,0-2.14,0l-2.81,1.26a.57.57,0,0,1-.6-.06.52.52,0,0,1-.22-.48l.37-3a2.55,2.55,0,0,0-.68-2Z"/><circle cx="32" cy="37" r="1"/></g></g></svg>